<?xml version="1.0" standalone="no"?>
<!DOCTYPE svg PUBLIC "-//W3C//DTD SVG 20010904//EN"
 "http://www.w3.org/TR/2001/REC-SVG-20010904/DTD/svg10.dtd">
<svg version="1.0" xmlns="http://www.w3.org/2000/svg"
 width="512.000000pt" height="512.000000pt" viewBox="0 0 512.000000 512.000000"
 preserveAspectRatio="xMidYMid meet">
<metadata>
Created by potrace 1.14, written by Peter Selinger 2001-2017
</metadata>
<g transform="translate(0.000000,512.000000) scale(0.100000,-0.100000)"
fill="#000000" stroke="none">
<path d="M831 5094 c-221 -37 -401 -146 -546 -329 -72 -91 -138 -254 -156
-380 -6 -38 -14 -218 -19 -400 -19 -750 -33 -1127 -54 -1485 -8 -135 -20 -371
-26 -525 -6 -154 -16 -296 -21 -315 -5 -19 -9 -111 -9 -205 0 -136 4 -187 20
-255 16 -64 20 -113 19 -200 -5 -264 17 -385 97 -540 116 -226 323 -381 582
-435 103 -22 3579 -22 3686 0 321 66 576 317 652 641 10 44 19 148 23 289 6
157 13 237 25 279 14 50 16 88 11 245 -4 102 -10 240 -15 306 -31 411 -66
1156 -81 1740 -22 868 -23 879 -57 983 -97 294 -303 490 -602 573 l-85 24
-1680 1 c-1410 2 -1693 0 -1764 -12z m2334 -234 c-3 -5 -22 -10 -41 -10 -19 0
-34 5 -34 10 0 6 18 10 41 10 24 0 38 -4 34 -10z m122 -142 c-4 -18 -9 -89
-13 -158 -7 -140 -23 -196 -24 -84 0 39 -3 99 -7 134 -6 62 -6 62 -17 29 -10
-31 -15 -35 -66 -43 -30 -5 -58 -13 -61 -19 -4 -5 -33 -11 -65 -13 -32 -2 -61
-9 -64 -15 -4 -6 -18 -7 -33 -3 -20 4 -27 2 -27 -8 0 -12 -20 -17 -82 -21 -45
-4 -85 -12 -89 -18 -5 -8 -8 -8 -13 0 -11 18 -26 13 -26 -9 0 -17 -7 -20 -44
-20 -24 0 -46 5 -48 11 -2 6 -14 8 -31 4 -30 -8 -27 -25 4 -25 10 0 19 -4 19
-10 0 -5 -9 -10 -20 -10 -11 0 -20 4 -20 9 0 5 -19 8 -42 6 -24 -2 -49 -4 -57
-4 -7 -1 -11 -7 -8 -15 4 -11 -3 -13 -34 -9 -27 4 -45 1 -57 -9 -9 -8 -30 -15
-45 -16 -32 -2 -49 -10 -43 -20 2 -4 -14 -8 -36 -9 -22 0 -45 -6 -51 -12 -6
-6 -26 -11 -44 -11 -26 0 -33 -4 -33 -20 0 -11 -4 -20 -10 -20 -5 0 -10 4 -10
8 0 14 -61 1 -67 -14 -3 -9 -21 -14 -48 -14 -24 0 -47 -4 -50 -10 -4 -6 9 -10
32 -10 31 -1 35 -3 20 -11 -9 -5 -22 -7 -27 -4 -6 3 -10 -2 -10 -13 0 -16 -10
-20 -57 -25 -32 -3 -59 -11 -61 -17 -2 -5 -11 -10 -19 -10 -10 0 -14 6 -10 20
4 14 0 20 -11 20 -12 0 -17 -9 -18 -32 -3 -50 -21 -178 -27 -184 -7 -7 -21
222 -14 238 2 7 54 28 113 46 290 89 569 176 809 252 50 16 151 47 225 70 74
23 194 62 265 85 72 24 136 44 144 44 10 1 12 -8 8 -31z m-2142 -227 c-9 -30
96 -116 218 -179 58 -29 59 -42 6 -42 -16 0 -19 -7 -19 -43 0 -24 4 -47 9 -52
15 -15 33 -169 21 -173 -8 -3 -15 -32 -7 -32 1 0 34 -13 73 -29 38 -16 94 -32
123 -36 38 -5 50 -10 42 -18 -15 -15 -148 7 -222 37 -80 32 -162 82 -215 132
l-44 40 0 207 c0 140 3 207 11 207 6 0 8 -8 4 -19z m632 -47 c-3 -3 -12 -4
-19 -1 -8 3 -5 6 6 6 11 1 17 -2 13 -5z m-72 -23 c-12 -11 -93 -27 -83 -16 4
4 22 11 40 15 47 11 53 11 43 1z m725 -21 c0 -5 -15 -9 -32 -9 l-33 1 30 8
c17 4 31 8 33 9 1 0 2 -3 2 -9z m-1175 -558 c-2 -2 -19 6 -39 18 l-37 20 -9
-22 c-9 -23 -9 -23 -9 -2 -1 12 -4 37 -8 55 l-6 34 55 -50 c30 -27 54 -51 53
-53z m1503 -564 c8 -8 12 -60 12 -170 0 -94 4 -158 10 -158 5 0 26 11 46 25
31 21 48 25 109 25 85 0 121 -15 169 -72 56 -65 71 -123 70 -268 -1 -102 -5
-135 -22 -180 -43 -111 -122 -170 -225 -170 -51 0 -128 27 -142 50 -11 18 -34
10 -37 -12 -2 -19 -10 -24 -46 -26 -24 -2 -50 2 -58 9 -12 10 -14 85 -14 466
0 294 4 461 10 474 8 15 21 19 58 19 27 0 53 -5 60 -12z m-1816 -60 c14 -11
35 -73 116 -333 57 -187 110 -339 119 -342 5 -2 20 29 32 69 13 40 36 116 53
168 16 52 36 115 43 140 44 150 88 287 97 298 15 17 103 16 118 -3 13 -15 5
-42 -100 -365 -21 -63 -66 -203 -100 -310 -35 -107 -67 -201 -73 -207 -14 -19
-131 -17 -147 2 -14 17 -33 70 -164 480 -48 149 -94 287 -102 308 -17 46 -18
94 -1 100 24 10 94 7 109 -5z m988 -243 c84 -42 130 -135 130 -261 0 -47 -4
-76 -12 -81 -7 -4 -96 -10 -198 -13 l-185 -5 1 -46 c0 -83 64 -139 159 -139
24 0 74 11 113 24 84 28 102 22 102 -34 0 -26 -7 -45 -20 -58 -32 -29 -120
-52 -202 -52 -174 0 -263 77 -294 252 -31 180 24 342 139 408 46 26 61 30 135
30 69 0 91 -4 132 -25z m375 -2 c12 -29 20 -29 57 2 25 21 40 25 92 25 35 0
67 -5 74 -12 7 -7 12 -38 12 -69 0 -65 -9 -73 -63 -58 -49 13 -78 -1 -121 -59
l-36 -50 0 -204 c0 -145 -3 -207 -12 -216 -7 -7 -33 -12 -60 -12 -37 0 -50 4
-58 20 -7 14 -10 123 -8 330 3 346 0 332 73 328 30 -2 42 -8 50 -25z m1397 8
c48 -20 96 -69 130 -134 21 -38 23 -56 23 -177 0 -145 -11 -188 -72 -268 -58
-77 -210 -115 -324 -81 -83 25 -148 105 -174 214 -43 188 18 373 145 437 47
24 67 28 142 28 62 0 98 -5 130 -19z m599 -4 c30 -20 34 -28 37 -74 4 -62 -14
-73 -67 -42 -48 29 -131 31 -160 5 -50 -45 -12 -104 96 -150 116 -49 163 -107
163 -202 0 -71 -33 -132 -93 -168 -61 -38 -167 -47 -242 -21 -73 24 -85 39
-85 102 0 50 1 53 26 53 14 0 45 -11 70 -25 84 -47 176 -27 190 41 7 39 -22
73 -86 99 -25 11 -68 33 -96 51 -87 54 -118 157 -75 249 35 78 86 104 202 105
73 0 91 -3 120 -23z m-3136 -1404 c28 -24 29 -25 3 -9 -32 19 -59 21 -76 4 -9
-9 -12 -9 -12 3 0 38 43 39 85 2z m318 -320 c-22 -48 -22 -48 -30 -40 -7 8 28
77 39 77 4 0 0 -17 -9 -37z m2282 27 c-3 -5 -12 -10 -18 -10 -7 0 -6 4 3 10
19 12 23 12 15 0z m-45 -24 c0 -2 -17 -15 -37 -27 -21 -12 -74 -46 -118 -74
-44 -29 -87 -55 -95 -58 -8 -4 -31 -17 -51 -30 -89 -56 -252 -155 -604 -367
-209 -126 -402 -243 -429 -260 -27 -17 -54 -29 -60 -26 -17 7 -448 407 -566
525 -101 101 -107 110 -30 45 20 -16 56 -45 80 -64 24 -19 48 -39 54 -45 6 -5
45 -37 86 -70 41 -33 77 -62 80 -65 3 -3 22 -14 43 -24 20 -11 37 -23 37 -28
0 -4 5 -8 11 -8 7 0 43 -21 82 -47 38 -27 77 -52 86 -58 9 -5 19 -14 23 -20 5
-6 39 6 90 32 46 23 110 53 143 68 33 14 74 32 90 40 17 8 62 28 100 45 101
45 122 55 196 89 37 17 72 31 78 31 6 0 11 4 11 9 0 5 12 14 28 20 15 5 52 24
82 42 30 17 80 45 110 62 30 16 72 41 92 54 21 12 40 23 43 23 3 0 42 20 85
45 44 25 102 57 128 72 26 14 63 36 82 49 34 22 50 28 50 20z m-2280 -115 c0
-4 33 -36 73 -71 120 -104 617 -561 617 -568 0 -3 -12 6 -27 19 -16 14 -113
102 -218 195 -254 225 -459 414 -463 425 -2 5 1 9 7 9 6 0 11 -4 11 -9z m1940
-185 c0 -7 -72 -47 -77 -43 -2 3 11 14 29 25 33 20 48 26 48 18z m-95 -56 c-3
-5 -67 -46 -143 -92 -75 -46 -146 -88 -157 -95 -11 -7 -29 -17 -40 -23 -11 -6
-33 -19 -50 -30 -16 -11 -37 -23 -45 -27 -8 -3 -61 -35 -118 -70 -56 -35 -108
-63 -114 -63 -14 0 652 407 670 410 2 0 1 -4 -3 -10z m-690 -420 c-3 -5 -11
-10 -16 -10 -6 0 -7 5 -4 10 3 6 11 10 16 10 6 0 7 -4 4 -10z m-45 -25 c-7 -8
-18 -15 -24 -15 -6 0 -2 7 8 15 25 19 32 19 16 0z m-213 -121 c-3 -3 -12 -4
-19 -1 -8 3 -5 6 6 6 11 1 17 -2 13 -5z"/>
<path d="M3098 4633 c7 -3 16 -2 19 1 4 3 -2 6 -13 5 -11 0 -14 -3 -6 -6z"/>
<path d="M3010 4610 l-25 -8 28 -1 c15 -1 27 4 27 9 0 6 -1 10 -2 9 -2 -1 -14
-5 -28 -9z"/>
<path d="M2895 4580 c-4 -6 5 -10 19 -10 14 0 26 5 26 10 0 6 -9 10 -19 10
-11 0 -23 -4 -26 -10z"/>
<path d="M2800 4550 c0 -5 11 -10 25 -10 14 0 25 5 25 10 0 6 -11 10 -25 10
-14 0 -25 -4 -25 -10z"/>
<path d="M2720 4530 c-17 -11 10 -19 34 -10 19 6 19 7 -1 12 -11 3 -26 2 -33
-2z"/>
<path d="M2645 4500 c-18 -8 -17 -9 8 -9 15 -1 27 4 27 9 0 12 -8 12 -35 0z"/>
<path d="M1868 4263 c-21 -5 -24 -23 -4 -23 22 0 46 11 46 21 0 9 -13 10 -42
2z"/>
<path d="M2854 2854 c-78 -52 -83 -64 -84 -199 l0 -121 43 -42 c55 -54 95 -69
134 -49 63 33 93 102 93 218 0 92 -21 160 -62 194 -38 32 -75 32 -124 -1z"/>
<path d="M1740 2873 c-39 -20 -87 -99 -77 -126 5 -15 23 -17 121 -17 123 0
146 4 146 26 0 25 -39 93 -63 108 -38 25 -89 28 -127 9z"/>
<path d="M3490 2858 c-56 -39 -75 -88 -74 -198 0 -122 23 -179 83 -209 47 -25
76 -26 122 -7 73 30 101 89 101 211 1 111 -22 173 -74 205 -46 28 -115 27
-158 -2z"/>
</g>
</svg>
